<svg xmlns="http://www.w3.org/2000/svg" viewBox="0 0 24 24" role="img" aria-label="Discord">
  <rect x="2.2" y="3.3" width="19.6" height="17.4" rx="5" fill="#5865F2"/>
  <path fill="#FFFFFF" d="M17.6 7.4A11.4 11.4 0 0 0 14.8 6l-.4.8a10 10 0 0 0-4.8 0L9.2 6a11.4 11.4 0 0 0-2.8 1.4 12.5 12.5 0 0 0-1.9 7.5 10.9 10.9 0 0 0 3.4 1.7l.8-1.2c-.4-.2-.8-.4-1.2-.6l.3-.2a8.4 8.4 0 0 0 8.4 0l.3.2c-.4.2-.8.5-1.2.6l.8 1.2a10.9 10.9 0 0 0 3.4-1.7 12.5 12.5 0 0 0-1.9-7.5ZM9.1 13.4c-.7 0-1.3-.6-1.3-1.4s.6-1.4 1.3-1.4 1.3.6 1.3 1.4-.6 1.4-1.3 1.4Zm5.8 0c-.7 0-1.3-.6-1.3-1.4s.6-1.4 1.3-1.4 1.3.6 1.3 1.4-.6 1.4-1.3 1.4Z"/>
</svg>
