<svg xmlns="http://www.w3.org/2000/svg" viewBox="0 0 24 24" role="img" aria-label="Discord">
  <path fill="currentColor" d="M18.7 5.1A15 15 0 0 0 15 4l-.5 1.1a13 13 0 0 0-5 0L9 4a15 15 0 0 0-3.7 1.1A15.8 15.8 0 0 0 2.6 15.8a15 15 0 0 0 4.6 2.3l1-1.6c-.6-.2-1.1-.5-1.6-.8l.4-.3a10.6 10.6 0 0 0 10 0l.4.3c-.5.3-1 .6-1.6.8l1 1.6a15 15 0 0 0 4.6-2.3 15.8 15.8 0 0 0-2.7-10.7ZM8.6 13.8c-.9 0-1.6-.8-1.6-1.8s.7-1.8 1.6-1.8 1.7.8 1.6 1.8c0 1-.7 1.8-1.6 1.8Zm6.8 0c-.9 0-1.6-.8-1.6-1.8s.7-1.8 1.6-1.8S17 11 17 12s-.7 1.8-1.6 1.8Z"/>
</svg>
