<svg xmlns="http://www.w3.org/2000/svg" viewBox="0 0 24 24" role="img" aria-label="Google">
  <path fill="#4285F4" d="M21.6 12.2c0-.7-.1-1.4-.2-2H12v3.8h5.4a4.6 4.6 0 0 1-2 3v2.5h3.2c1.9-1.7 3-4.3 3-7.3Z"/>
  <path fill="#34A853" d="M12 22c2.7 0 5-0.9 6.6-2.5L15.4 17c-.9.6-2 .9-3.4.9a5.9 5.9 0 0 1-5.6-4.1H3.1v2.6A10 10 0 0 0 12 22Z"/>
  <path fill="#FBBC05" d="M6.4 13.8a6 6 0 0 1 0-3.6V7.6H3.1a10 10 0 0 0 0 8.8l3.3-2.6Z"/>
  <path fill="#EA4335" d="M12 6.1c1.5 0 2.8.5 3.8 1.5l2.8-2.8A9.6 9.6 0 0 0 12 2a10 10 0 0 0-8.9 5.6l3.3 2.6A5.9 5.9 0 0 1 12 6.1Z"/>
</svg>
