<svg xmlns="http://www.w3.org/2000/svg" viewBox="0 0 24 24" role="img" aria-label="Instagram">
  <defs>
    <linearGradient id="instagramGradient" x1="3" y1="21" x2="21" y2="3" gradientUnits="userSpaceOnUse">
      <stop offset="0" stop-color="#F58529"/>
      <stop offset="0.35" stop-color="#DD2A7B"/>
      <stop offset="0.68" stop-color="#8134AF"/>
      <stop offset="1" stop-color="#515BD4"/>
    </linearGradient>
  </defs>
  <rect x="2.8" y="2.8" width="18.4" height="18.4" rx="5" fill="url(#instagramGradient)"/>
  <path fill="#FFFFFF" d="M12 7.7a4.3 4.3 0 1 0 0 8.6 4.3 4.3 0 0 0 0-8.6Zm0 6.9a2.6 2.6 0 1 1 0-5.2 2.6 2.6 0 0 1 0 5.2Zm5.4-7.1a1 1 0 1 1-2 0 1 1 0 0 1 2 0Z"/>
  <path fill="#FFFFFF" fill-rule="evenodd" d="M7.8 4.7h8.4a3.1 3.1 0 0 1 3.1 3.1v8.4a3.1 3.1 0 0 1-3.1 3.1H7.8a3.1 3.1 0 0 1-3.1-3.1V7.8a3.1 3.1 0 0 1 3.1-3.1Zm0 1.7a1.4 1.4 0 0 0-1.4 1.4v8.4a1.4 1.4 0 0 0 1.4 1.4h8.4a1.4 1.4 0 0 0 1.4-1.4V7.8a1.4 1.4 0 0 0-1.4-1.4H7.8Z" clip-rule="evenodd"/>
</svg>
