<svg xmlns="http://www.w3.org/2000/svg" viewBox="0 0 24 24" role="img" aria-label="TikTok">
  <rect x="2" y="2" width="20" height="20" rx="5" fill="#050505"/>
  <path fill="#25F4EE" d="M15.1 3.9c.3 2.1 1.5 3.4 3.4 3.6v2.4a6.3 6.3 0 0 1-3.3-1.1v5.6c0 2.9-1.9 5.3-5.1 5.3-2.8 0-4.9-1.8-5.1-4.5.5 1.6 2 2.7 3.8 2.7 3.2 0 5.1-2.4 5.1-5.3V3.9h1.2Z"/>
  <path fill="#FE2C55" d="M16.4 5.3c.6 1.2 1.6 1.9 3.1 2.1v2.8a6.3 6.3 0 0 1-3.3-1.1v5.6c0 2.9-1.9 5.3-5.1 5.3-2 0-3.7-.9-4.5-2.3.8.7 1.8 1.1 3 1.1 3.2 0 5.1-2.4 5.1-5.3V5.3h1.7Z"/>
  <path fill="#FFFFFF" d="M15.2 3.1c.4 2.4 1.7 3.8 3.9 4v3.1a7 7 0 0 1-3.8-1.2v5.8c0 3-2 5.7-5.5 5.7-3.2 0-5.6-2.2-5.6-5.2 0-3.3 2.8-5.8 6.4-5.2v3.3c-1.5-.5-3 .4-3 1.9 0 1.2.9 2 2.1 2 1.4 0 2.1-.8 2.1-2.5V3.1h3.4Z"/>
</svg>
