<svg xmlns="http://www.w3.org/2000/svg" viewBox="0 0 24 24" role="img" aria-label="WhatsApp">
  <path fill="currentColor" d="M12 2.2A9.7 9.7 0 0 0 3.7 17l-1.1 4.1 4.2-1.1A9.7 9.7 0 1 0 12 2.2Zm0 1.8a7.9 7.9 0 0 1 6.7 12.1A7.9 7.9 0 0 1 7.1 18l-.3-.2-2.2.6.6-2.1-.2-.3A7.9 7.9 0 0 1 12 4Zm-3.1 3.9c-.2 0-.5.1-.7.4-.2.3-.9.9-.9 2.1 0 1.3.9 2.5 1.1 2.7.1.2 1.8 2.8 4.4 3.8 2.2.9 2.6.7 3.1.7.5-.1 1.5-.6 1.7-1.2.2-.6.2-1.1.1-1.2-.1-.1-.2-.2-.5-.3l-1.7-.8c-.3-.1-.5-.1-.7.2l-.7.9c-.1.2-.3.2-.6.1-.3-.1-1.1-.4-2.1-1.3-.8-.7-1.3-1.6-1.5-1.8-.1-.3 0-.4.1-.5l.4-.5c.1-.2.2-.3.3-.5.1-.2.1-.3 0-.5l-.8-1.8c-.2-.4-.4-.4-.6-.4h-.4Z"/>
</svg>
