<svg xmlns="http://www.w3.org/2000/svg" viewBox="0 0 24 24" role="img" aria-label="WhatsApp">
  <path fill="#25D366" d="M12 2.2A9.7 9.7 0 0 0 3.7 17l-1.1 4.1 4.2-1.1A9.7 9.7 0 1 0 12 2.2Z"/>
  <path fill="#FFFFFF" d="m7.1 18 .6-2.2-.2-.3A7.4 7.4 0 1 1 10.6 18a7.5 7.5 0 0 1-3.1-.7l-.4-.2Zm1.8-10.1c-.2 0-.5.1-.7.4-.2.3-.9.9-.9 2.1 0 1.3.9 2.5 1.1 2.7.1.2 1.8 2.8 4.4 3.8 2.2.9 2.6.7 3.1.7.5-.1 1.5-.6 1.7-1.2.2-.6.2-1.1.1-1.2-.1-.1-.2-.2-.5-.3l-1.7-.8c-.3-.1-.5-.1-.7.2l-.7.9c-.1.2-.3.2-.6.1-.3-.1-1.1-.4-2.1-1.3-.8-.7-1.3-1.6-1.5-1.8-.1-.3 0-.4.1-.5l.4-.5c.1-.2.2-.3.3-.5.1-.2.1-.3 0-.5l-.8-1.8c-.2-.4-.4-.4-.6-.4h-.4Z"/>
</svg>
